#!OML:ASF H:\BreakDance\Project 1\Capture day 1\Session 1\Male.ASF
:FULLY-SPECIFIED
:DEGREES
203
root 17.7871 16.3297 0.136237 -32.7186 -87.2621 35.6373
lowerback -9.62961 -1.16395 -2.58948
upperback 3.45425 -1.22669 0.0315336
thorax 9.15642 -0.748818 1.27748
lowerneck -3.39566 1.10786 -4.48441
upperneck 24.483 0.790784 2.21834
head 8.0741 -0.122225 1.52431
rclavicle 3.57812e-015 1.14301e-015
rhumerus -29.9643 7.16319 -87.4879
rradius 58.5403
rwrist 2.77596
rhand -36.1369 -19.8592
rfingers 7.12502
rthumb -9.24195 -49.6366
lclavicle 3.57812e-015 1.14301e-015
lhumerus -27.813 5.33113 86.7147
lradius 58.9658
lwrist -11.2712
lhand -35.4004 -36.3581
lfingers 7.12502
lthumb -8.53115 -6.5504
rfemur -12.5529 4.1877 9.64926
rtibia 34.4448
rfoot -27.0455 -23.5811
rtoes -8.74804
lfemur -11.7629 0.782422 -11.1773
ltibia 30.7372
lfoot -28.3503 23.9909
ltoes -25.9406
204
root 17.7822 16.3295 0.138066 -33.2683 -87.2616 36.1866
lowerback -9.60671 -1.17118 -2.60378
upperback 3.4464 -1.23426 0.0195861
thorax 9.13485 -0.752643 1.27193
lowerneck -3.3534 1.13498 -4.47819
upperneck 24.4543 0.825604 2.21984
head 8.05539 -0.104877 1.52586
rclavicle -1.19581e-014 -4.47266e-015
rhumerus -29.9872 7.16862 -87.5229
rradius 58.5338
rwrist 2.80051
rhand -36.1261 -19.9051
rfingers 7.12502
rthumb -9.2315 -49.683
lclavicle -1.19581e-014 -4.47266e-015
lhumerus -27.8157 5.36579 86.7088
lradius 58.953
lwrist -11.3356
lhand -35.4114 -36.3226
lfingers 7.12502
lthumb -8.54177 -6.51541
rfemur -12.5474 4.15334 9.61629
rtibia 34.4587
rfoot -27.0248 -23.5498
rtoes -8.7839
lfemur -11.7372 0.799349 -11.2086
ltibia 30.7317
lfoot -28.3361 23.961
ltoes -25.8372
205
root 17.7774 16.3294 0.139725 -34.132 -87.2542 37.0494
lowerback -9.58542 -1.17528 -2.63253
upperback 3.43575 -1.2352 0.00153536
thorax 9.11111 -0.753838 1.26919
lowerneck -3.283 1.15255 -4.50088
upperneck 24.4197 0.842573 2.24683
head 8.02992 -0.0965636 1.53922
rclavicle -7.37367e-015 -2.03754e-015
rhumerus -30.02 7.15879 -87.5579
rradius 58.5327
rwrist 2.83035
rhand -36.0917 -19.9539
rfingers 7.12502
rthumb -9.19826 -49.7332
lclavicle -7.37367e-015 -2.03754e-015
lhumerus -27.8301 5.39024 86.7014
lradius 58.9447
lwrist -11.3969
lhand -35.429 -36.2798
lfingers 7.12502
lthumb -8.5588 -6.47327
rfemur -12.5447 4.10848 9.56476
rtibia 34.4793
rfoot -26.9969 -23.5129
rtoes -8.84585
lfemur -11.7061 0.822061 -11.2572
ltibia 30.7167
lfoot -28.3229 23.9313
ltoes -25.749
206
root 17.7722 16.3292 0.141418 -35.3113 -87.2415 38.2268
lowerback -9.57042 -1.17411 -2.66447
upperback 3.42522 -1.2276 -0.027151
thorax 9.09064 -0.750759 1.25829
lowerneck -3.20896 1.16082 -4.53997
upperneck 24.3925 0.842052 2.29858
head 8.00657 -0.096093 1.56231
rclavicle 4.72114e-016 0
rhumerus -30.0603 7.13283 -87.5952
rradius 58.5429
rwrist 2.85626
rhand -36.0436 -20.0108
rfingers 7.12502
rthumb -9.15188 -49.7922
lclavicle 4.72114e-016 0
lhumerus -27.8526 5.39144 86.6881
lradius 58.9417
lwrist -11.442
lhand -35.4621 -36.2516
lfingers 7.12502
lthumb -8.59076 -6.44636
rfemur -12.5438 4.04681 9.49389
rtibia 34.5028
rfoot -26.9575 -23.4702
rtoes -8.9914
lfemur -11.667 0.851094 -11.3231
ltibia 30.6964
lfoot -28.3313 23.8999
ltoes -25.654
207
root 17.7666 16.3293 0.143274 -36.6851 -87.2283 39.5997
lowerback -9.56479 -1.16559 -2.69094
upperback 3.41676 -1.21002 -0.0626753
thorax 9.07715 -0.742395 1.2386
lowerneck -3.15043 1.16259 -4.57956
upperneck 24.3806 0.830398 2.36157
head 7.9915 -0.100181 1.58863
rclavicle -1.57475e-014 -8.94531e-016
rhumerus -30.0995 7.09799 -87.6267
rradius 58.5636
rwrist 2.86178
rhand -35.996 -20.0683
rfingers 7.12502
rthumb -9.10592 -49.8517
lclavicle -1.57475e-014 -8.94531e-016
lhumerus -27.8723 5.36423 86.6752
lradius 58.9378
lwrist -11.4633
lhand -35.5022 -36.2502
lfingers 7.12502
lthumb -8.62941 -6.44654
rfemur -12.5459 3.96395 9.41079
rtibia 34.5256
rfoot -26.9036 -23.4194
rtoes -9.21595
lfemur -11.6234 0.890998 -11.3987
ltibia 30.6759
lfoot -28.3676 23.8704
ltoes -25.5793
208
root 17.7603 16.3297 0.145246 -37.9091 -87.2192 40.8256
lowerback -9.57934 -1.15131 -2.70416
upperback 3.4165 -1.18604 -0.0949122
thorax 9.0839 -0.730556 1.21564
lowerneck -3.12155 1.15787 -4.60813
upperneck 24.382 0.812246 2.41579
head 7.98674 -0.107035 1.61
rclavicle 7.60973e-015 -6.21202e-015
rhumerus -30.1227 7.0608 -87.644
rradius 58.5902
rwrist 2.84001
rhand -35.9605 -20.1143
rfingers 7.12502
rthumb -9.07173 -49.8992
lclavicle 7.60973e-015 -6.21202e-015
lhumerus -27.8805 5.31294 86.6714
lradius 58.9343
lwrist -11.4626
lhand -35.5326 -36.252
lfingers 7.12502
lthumb -8.65878 -6.44962
rfemur -12.5485 3.86646 9.33546
rtibia 34.5437
rfoot -26.8361 -23.3693
rtoes -9.47348
lfemur -11.5828 0.940095 -11.4651
ltibia 30.6618
lfoot -28.4212 23.843
ltoes -25.5589
209
root 17.7538 16.3301 0.147108 -38.6865 -87.2174 41.6054
lowerback -9.6118 -1.13522 -2.7005
upperback 3.42622 -1.16203 -0.116787
thorax 9.11187 -0.718386 1.19382
lowerneck -3.12489 1.14575 -4.62562
upperneck 24.3914 0.788624 2.45365
head 7.99094 -0.116584 1.62396
rclavicle -3.59055e-015 -1.19271e-015
rhumerus -30.1228 7.02459 -87.6486
rradius 58.6146
rwrist 2.79677
rhand -35.9408 -20.154
rfingers 7.12502
rthumb -9.05272 -49.9397
lclavicle -3.59055e-015 -1.19271e-015
lhumerus -27.8842 5.24561 86.6785
lradius 58.9402
lwrist -11.4412
lhand -35.5353 -36.2522
lfingers 7.12502
lthumb -8.66142 -6.44984
rfemur -12.5459 3.77317 9.28722
rtibia 34.5539
rfoot -26.761 -23.339
rtoes -9.73301
lfemur -11.5499 0.99254 -11.5058
ltibia 30.6602
lfoot -28.4729 23.8158
ltoes -25.6135
